<svg xmlns="http://www.w3.org/2000/svg" xmlns:xlink="http://www.w3.org/1999/xlink" version="1.1" x="0px" y="0px" viewBox="0 0 100 125" enable-background="new 0 0 100 100" xml:space="preserve"><g><g><path fill="#000000" d="M31.933,36.479c-0.559,1.138-0.927,2.22-1.098,3.225c-8.961,4.505-16.077,12.036-20.059,21.23    c-1.085,0.659-1.836,1.319-2.336,1.848C12.803,44.135,28.437,37.699,31.933,36.479 M32.546,35.958c0,0-20.217,5.617-24.69,28.083    c0,0,0.748-1.454,3.162-2.897c3.974-9.235,11.133-16.774,20.094-21.238C31.286,38.748,31.74,37.437,32.546,35.958L32.546,35.958z"/><path fill="#000000" d="M68.067,36.479c3.496,1.221,19.131,7.657,23.493,26.303c-0.499-0.529-1.25-1.188-2.336-1.848    c-3.982-9.193-11.098-16.725-20.058-21.229C68.994,38.699,68.626,37.617,68.067,36.479 M67.454,35.958    c0.807,1.479,1.261,2.79,1.435,3.949c8.961,4.464,16.12,12.003,20.094,21.237c2.414,1.443,3.162,2.897,3.162,2.897    C87.671,41.575,67.454,35.958,67.454,35.958L67.454,35.958z"/><circle fill="none" cx="58.387" cy="50.915" r="1.258"/><path fill="none" d="M54.119,52.01c0.181,0.101,0.386,0.163,0.608,0.163c0.695,0,1.258-0.563,1.258-1.258    c0-0.695-0.563-1.258-1.258-1.258c-0.219,0-0.423,0.061-0.602,0.16c0.091,0.347,0.145,0.71,0.145,1.085    C54.27,51.286,54.214,51.656,54.119,52.01z"/><path fill="none" d="M45.875,49.817c-0.18-0.099-0.383-0.16-0.602-0.16c-0.695,0-1.258,0.563-1.258,1.258    c0,0.695,0.563,1.258,1.258,1.258c0.222,0,0.427-0.062,0.608-0.163c-0.095-0.354-0.15-0.724-0.15-1.108    C45.73,50.526,45.784,50.164,45.875,49.817z"/><circle fill="none" cx="62.047" cy="50" r="1.258"/><circle fill="none" cx="41.613" cy="50.915" r="1.258"/><circle fill="none" cx="37.953" cy="50" r="1.258"/><path fill="#000000" d="M50.057,46.836l2.078,0.648c0,0,0.052-0.076,0.116-0.205c-0.654-0.407-1.424-0.647-2.251-0.647    c-0.811,0-1.565,0.23-2.211,0.622c0.073,0.143,0.133,0.229,0.133,0.229L50.057,46.836z"/><path fill="#000000" d="M53.469,50.915c0,0.473,0.264,0.88,0.65,1.095c0.095-0.354,0.15-0.724,0.15-1.108    c0-0.376-0.053-0.738-0.145-1.085C53.736,50.031,53.469,50.44,53.469,50.915z"/><path fill="#000000" d="M46.531,50.915c0-0.475-0.267-0.884-0.656-1.098c-0.091,0.347-0.145,0.71-0.145,1.085    c0,0.384,0.055,0.754,0.15,1.108C46.267,51.795,46.531,51.388,46.531,50.915z"/><path fill="#000000" d="M48.146,54.744c0.561,0.272,1.189,0.428,1.854,0.428c0.017,0,0.034-0.002,0.052-0.003    C49.425,54.84,48.781,54.72,48.146,54.744z"/><path fill="#000000" d="M50.064,55.169c0.645-0.01,1.253-0.164,1.798-0.429C51.263,54.733,50.657,54.857,50.064,55.169z"/><path fill="#000000" d="M54.475,46.722c-1.935-1.667-2.292-1.334-2.292-1.334c0.537,0.724,0.252,1.525,0.069,1.892    c0.913,0.569,1.594,1.471,1.874,2.538c0.18-0.099,0.383-0.16,0.602-0.16c0.695,0,1.258,0.563,1.258,1.258    c0,0.695-0.563,1.258-1.258,1.258c-0.222,0-0.427-0.062-0.608-0.163c-0.323,1.204-1.157,2.195-2.257,2.73    c3.098,0.036,6.017,3.634,6.017,3.634c0.864-8.123,7.974-4.524,7.974-4.524c12.606-5.286,16.628,4.994,16.628,4.994    c2.931,0.54,5.027,1.418,6.502,2.3C85.008,51.91,77.85,44.371,68.889,39.907C70.145,48.26,56.768,48.697,54.475,46.722z     M58.387,52.173c-0.695,0-1.258-0.563-1.258-1.258c0-0.695,0.563-1.258,1.258-1.258c0.695,0,1.258,0.563,1.258,1.258    C59.645,51.61,59.082,52.173,58.387,52.173z M62.047,51.258c-0.695,0-1.258-0.563-1.258-1.258c0-0.695,0.563-1.258,1.258-1.258    s1.258,0.563,1.258,1.258C63.305,50.695,62.741,51.258,62.047,51.258z"/><polygon fill="#000000" points="50.057,55.172 50.064,55.169 50.052,55.169   "/><path fill="#000000" d="M34.148,53.85c0,0,7.167-3.599,8.031,4.524c0,0,2.894-3.518,5.967-3.63    c-1.104-0.534-1.941-1.527-2.265-2.734c-0.181,0.101-0.386,0.163-0.608,0.163c-0.695,0-1.258-0.563-1.258-1.258    c0-0.695,0.563-1.258,1.258-1.258c0.219,0,0.423,0.061,0.602,0.16c0.284-1.083,0.981-1.995,1.914-2.562    c-0.192-0.377-0.468-1.159,0.057-1.867c0,0-0.371-0.333-2.306,1.334c-2.293,1.975-15.681,1.538-14.428-6.815    c-8.961,4.464-16.12,12.003-20.094,21.238c1.475-0.882,3.572-1.76,6.502-2.3C17.52,58.844,21.542,48.564,34.148,53.85z     M41.613,49.657c0.695,0,1.258,0.563,1.258,1.258c0,0.695-0.563,1.258-1.258,1.258c-0.695,0-1.258-0.563-1.258-1.258    C40.355,50.22,40.918,49.657,41.613,49.657z M37.953,48.742c0.695,0,1.258,0.563,1.258,1.258c0,0.695-0.563,1.258-1.258,1.258    S36.695,50.695,36.695,50C36.695,49.305,37.259,48.742,37.953,48.742z"/><path fill="#000000" d="M54.119,52.01c-0.386-0.215-0.65-0.622-0.65-1.095c0-0.475,0.267-0.884,0.656-1.098    c-0.28-1.067-0.961-1.969-1.874-2.538c-0.064,0.128-0.116,0.205-0.116,0.205l-2.078-0.648l-2.135,0.648    c0,0-0.061-0.087-0.133-0.229c-0.933,0.567-1.63,1.48-1.914,2.562c0.389,0.214,0.656,0.623,0.656,1.098    c0,0.473-0.264,0.88-0.65,1.095c0.324,1.207,1.161,2.115,2.265,2.649C48.781,54.636,49.425,55,50.052,55c0.004,0,0.008,0,0.013,0    c0.593,0,1.199-0.351,1.798-0.344C52.962,54.121,53.796,53.214,54.119,52.01z"/></g><circle fill="#000000" cx="50" cy="51" r="4.475"/></g></svg>