<?xml version="1.0" encoding="UTF-8"?>
<svg xmlns="http://www.w3.org/2000/svg" width="1024" height="1024" viewBox="0 0 1024 1024" preserveAspectRatio="xMidYMid meet">
  <rect width="100%" height="100%" fill="none" />
  <path d="M 49.00 249.00 L 105.00 297.00 L 136.00 350.00 L 144.00 399.00 L 127.00 449.00 L 212.00 488.00 L 251.00 559.00 L 297.00 559.00 L 336.00 576.00 L 375.00 631.00 L 411.00 613.00 L 456.00 626.00 L 511.00 721.00 L 541.00 656.00 L 570.00 624.00 L 611.00 613.00 L 648.00 631.00 L 686.00 577.00 L 726.00 559.00 L 772.00 559.00 L 787.00 517.00 L 817.00 483.00 L 896.00 449.00 L 880.00 407.00 L 887.00 351.00 L 921.00 294.00 L 974.00 249.00 L 649.00 351.00 L 679.00 377.00 L 681.00 420.00 L 652.00 450.00 L 591.00 469.00 L 569.00 372.00 L 548.00 437.00 L 475.00 437.00 L 454.00 373.00 L 434.00 467.00 L 362.00 444.00 L 341.00 416.00 L 346.00 374.00 L 375.00 351.00 Z" fill="#000000" stroke="none" />
</svg>
