<?xml version="1.0" standalone="no"?>
<!DOCTYPE svg PUBLIC "-//W3C//DTD SVG 20010904//EN"
 "http://www.w3.org/TR/2001/REC-SVG-20010904/DTD/svg10.dtd">
<svg version="1.0" xmlns="http://www.w3.org/2000/svg"
 width="300.000000pt" height="400.000000pt" viewBox="0 0 300.000000 400.000000"
 preserveAspectRatio="xMidYMid meet">
<metadata>
Created by potrace 1.10, written by Peter Selinger 2001-2011
</metadata>
<g transform="translate(0.000000,400.000000) scale(0.050000,-0.050000)"
fill="#3ad2af" stroke="none">
<path d="M2996 5771 c-176 -74 -216 -101 -216 -152 0 -20 -9 -42 -20 -49 -11
-7 -20 -50 -20 -96 0 -49 -16 -108 -39 -143 -34 -51 -38 -82 -28 -228 8 -112
3 -194 -14 -246 -21 -62 -21 -97 0 -183 22 -91 21 -119 -7 -201 -18 -53 -27
-105 -20 -116 7 -11 20 -108 30 -214 19 -226 21 -233 56 -317 57 -140 26 -163
-648 -488 -55 -26 -151 -76 -213 -111 -62 -34 -145 -73 -184 -86 -136 -45
-263 -239 -292 -447 -23 -167 -110 -640 -160 -874 -31 -143 -44 -298 -53 -630
-11 -405 -16 -450 -62 -568 -94 -242 -88 -347 25 -394 70 -29 70 -29 57 -129
l-13 -99 82 0 c46 0 83 9 83 20 0 11 -10 20 -22 20 -14 0 -18 19 -10 50 7 29
4 50 -8 50 -11 0 -20 17 -20 39 0 204 444 94 487 -121 10 -46 23 -58 64 -58
48 0 49 3 20 32 -39 39 -31 75 18 85 48 9 73 -35 48 -82 -18 -33 -13 -37 37
-31 40 4 58 18 62 51 5 30 21 45 47 45 22 0 58 10 80 22 30 16 47 16 63 0 34
-34 84 -26 124 18 20 22 48 40 63 40 15 0 27 14 27 30 0 17 7 30 15 30 8 0 25
21 36 47 19 40 17 45 -20 41 -22 -3 -52 -5 -65 -6 -14 -1 -20 -15 -13 -32 9
-25 -11 -30 -120 -30 -113 0 -132 -5 -143 -40 -7 -22 -30 -40 -50 -40 -44 0
-74 39 -45 57 21 14 32 105 28 248 -2 62 12 123 40 176 36 69 41 104 32 226
-6 80 -3 189 7 242 10 54 23 152 30 219 19 194 30 194 138 -3 78 -141 159
-249 175 -234 28 29 -84 257 -171 347 l-95 99 16 127 c11 91 23 126 45 126 17
1 32 7 35 16 9 23 -58 115 -75 104 -33 -21 -64 129 -75 368 -8 185 -5 244 12
234 32 -20 29 18 -4 46 -16 12 -32 67 -37 121 -13 131 -105 315 -180 361 -61
37 -30 90 38 66 28 -10 158 55 224 112 26 23 62 42 78 42 17 0 47 14 66 32 33
30 36 27 46 -35 40 -244 55 -304 91 -374 46 -92 161 -224 161 -186 0 13 -32
75 -71 136 -111 173 -154 527 -64 527 11 0 33 16 47 35 24 30 30 31 47 6 21
-32 25 -30 56 28 19 36 27 28 71 -70 65 -144 292 -357 382 -360 12 0 39 -38
60 -85 38 -83 112 -193 112 -166 0 8 -15 43 -34 78 -18 35 -35 91 -37 124 -2
33 -11 78 -20 100 -11 29 6 21 63 -30 43 -38 67 -57 53 -41 -14 16 -25 38 -24
50 0 12 18 0 40 -26 21 -26 34 -54 29 -63 -5 -8 8 -20 30 -26 27 -7 36 -21 28
-42 -13 -35 22 -45 42 -12 37 60 105 -16 78 -87 -17 -45 -53 -42 -83 7 -41 65
-71 46 -32 -20 26 -44 50 -60 93 -60 31 0 71 -14 88 -31 47 -47 51 -23 16 97
-32 112 -107 225 -196 294 -27 22 -54 64 -60 95 -9 45 -28 60 -101 82 -56 16
-93 40 -99 64 -7 27 -24 35 -67 29 -31 -4 -62 -8 -68 -9 -6 0 -9 -27 -7 -60 9
-130 -92 -72 -267 154 -47 61 -48 68 -18 102 18 20 33 47 33 60 0 37 161 -37
251 -115 39 -33 163 -102 184 -102 5 0 5 23 0 50 -12 63 56 70 118 12 85 -79
297 -147 257 -82 -7 11 -3 20 8 20 11 0 16 14 9 30 -6 17 -35 30 -64 30 -73 1
-123 34 -86 57 20 13 13 21 -25 31 -72 18 -65 42 23 80 123 53 210 108 254
161 68 82 151 90 151 14 0 -33 13 -68 29 -77 32 -18 50 -340 26 -460 -7 -36
-5 -70 4 -76 29 -17 -10 -121 -43 -115 -22 4 -30 -16 -33 -75 -1 -44 -11 -96
-20 -115 -10 -19 -36 -80 -57 -135 -26 -68 -49 -99 -72 -97 -31 2 -46 -34 -34
-83 19 -77 13 -109 -21 -120 -56 -18 -30 -89 33 -90 30 0 67 130 46 163 -28
44 -21 79 15 73 24 -4 39 15 52 64 10 39 40 117 66 174 27 57 49 120 49 140 1
29 4 30 19 8 20 -32 82 92 77 154 -11 137 1 163 65 141 34 -12 67 -16 73 -9 7
6 2 12 -12 12 -13 0 -19 8 -13 19 6 10 -7 24 -29 31 -39 12 -57 50 -23 50 9 0
15 18 15 39 -3 55 37 52 45 -3 9 -62 63 -119 101 -107 85 27 78 -25 -8 -58
-71 -27 -98 -30 -120 -11 -61 51 -75 6 -16 -54 61 -63 124 -62 100 1 -9 24 5
35 56 44 121 23 192 -58 276 -318 55 -171 85 -166 80 15 -5 162 6 163 36 2 12
-64 33 -135 48 -158 48 -77 56 -132 20 -132 -25 0 -31 -13 -23 -55 36 -187 35
-307 -4 -468 -22 -92 -46 -243 -52 -337 -17 -230 -46 -383 -104 -551 -53 -154
-54 -108 24 -619 18 -122 29 -271 23 -335 -6 -63 -2 -120 8 -126 10 -6 18 -26
18 -44 0 -26 -5 -28 -25 -8 -19 19 -32 14 -60 -21 -35 -46 -36 -46 -66 -6 -66
86 -110 130 -129 130 -30 0 -50 -61 -26 -77 11 -7 31 -33 44 -58 22 -42 37
-45 208 -45 233 1 281 27 164 92 -131 73 -64 307 98 343 162 36 166 33 160
-133 -3 -78 3 -147 14 -153 11 -7 10 -26 -2 -49 -39 -73 -25 -100 53 -100 l73
0 -14 260 -13 260 50 0 c78 0 31 289 -69 424 -31 42 -37 72 -28 141 7 48 -3
204 -21 346 -19 143 -42 439 -51 659 -37 840 -85 952 -517 1210 -123 73 -171
117 -252 232 -56 77 -130 172 -166 210 -100 105 -35 278 106 278 41 0 109 114
109 184 0 16 17 38 38 48 150 71 275 448 168 505 -35 18 -38 40 -33 202 6 197
-6 248 -89 371 -78 116 -86 122 -251 200 -82 40 -153 81 -157 91 -3 11 -27 23
-53 28 -26 5 -58 24 -70 41 -13 17 -59 37 -103 44 -45 7 -99 33 -124 59 -47
50 -98 61 -110 24 -6 -17 -20 -16 -54 2 -34 18 -52 19 -68 3 -12 -12 -34 -22
-49 -22 -16 0 -43 -15 -61 -33 -25 -25 -34 -26 -41 -6 -5 14 8 38 28 52 60 44
-6 28 -175 -42z m435 -137 c6 -15 36 -24 72 -22 34 2 85 -6 114 -20 78 -35
243 -140 243 -155 0 -20 -168 43 -191 72 -11 15 -74 37 -139 49 -106 20 -149
44 -150 87 0 25 41 17 51 -11z m-145 -81 c30 -10 34 -5 23 29 -10 31 -6 40 14
33 15 -5 25 -29 22 -52 -3 -25 7 -43 23 -43 15 0 39 -14 53 -32 23 -26 22 -31
-2 -27 -54 7 -81 -1 -69 -21 7 -12 21 -16 31 -9 10 6 36 1 57 -10 25 -13 44
-14 51 -2 15 23 71 5 71 -22 0 -11 -8 -14 -18 -8 -9 6 -28 -2 -41 -17 -17 -22
-17 -31 3 -40 14 -6 -5 -6 -44 1 -38 7 -76 21 -83 32 -6 11 -59 35 -117 55
-91 31 -100 38 -67 57 60 35 13 26 -78 -15 -96 -43 -215 -49 -215 -10 0 33 59
91 79 78 9 -5 28 4 41 20 14 17 58 30 102 30 47 0 78 9 78 24 0 14 10 12 25
-7 14 -17 41 -37 61 -44z m509 -201 c45 3 61 -20 28 -40 -28 -18 -163 28 -163
56 0 45 25 52 58 16 18 -19 52 -34 77 -32z m183 -7 c-8 -46 9 -63 65 -69 77
-7 97 -46 33 -63 -25 -7 -49 -3 -53 8 -3 10 -16 19 -27 19 -24 0 -96 77 -96
103 0 9 18 17 40 17 22 0 39 -7 38 -15z m-956 -64 c78 42 324 -10 389 -82 46
-51 76 -50 49 1 -21 40 6 59 29 21 7 -10 47 -14 89 -9 42 5 100 0 127 -10 38
-15 60 -12 88 11 31 26 32 29 3 20 -23 -8 -33 0 -31 27 3 29 11 33 39 18 40
-22 46 -49 16 -68 -12 -7 -15 -23 -7 -34 8 -13 4 -16 -10 -8 -13 8 -23 5 -23
-6 0 -30 78 -67 114 -53 22 8 27 27 18 66 -10 41 -8 47 7 25 15 -22 20 -23 21
-4 0 15 9 21 19 15 11 -7 15 -24 9 -38 -19 -51 57 -117 117 -102 30 7 55 21
55 31 0 10 12 18 27 18 15 0 37 20 49 45 20 43 21 43 23 4 1 -49 -42 -149 -65
-149 -9 0 -3 -14 15 -31 40 -41 40 -77 -1 -61 -17 7 -51 13 -75 13 -42 2 -42
2 -3 18 37 15 37 18 5 31 -43 18 -141 -5 -126 -29 6 -9 -11 -7 -39 6 -34 16
-46 34 -38 58 12 39 10 39 -155 43 -63 2 -109 -4 -104 -13 5 -8 -5 -15 -22
-15 -17 0 -31 -8 -31 -18 0 -10 -15 -16 -32 -15 -114 10 -75 -98 40 -113 53
-7 93 -29 126 -67 l48 -57 -12 70 c-8 42 -5 60 5 45 53 -76 -4 -475 -65 -452
-18 7 -36 -4 -45 -28 -30 -77 -156 -224 -209 -243 -47 -17 -54 -30 -52 -95 2
-42 -8 -78 -21 -83 -13 -4 -19 -15 -13 -24 6 -10 2 -23 -10 -30 -18 -11 -30
31 -22 76 2 10 -7 11 -18 4 -12 -7 -17 -31 -11 -52 6 -21 17 -58 24 -82 11
-40 8 -39 -38 10 -33 36 -54 89 -63 154 -13 97 -65 159 -111 131 -26 -16 -121
31 -121 60 0 14 13 30 28 35 64 25 93 131 47 174 -54 51 -155 54 -155 6 0 -26
6 -28 23 -11 26 26 127 -63 107 -95 -13 -21 -268 -19 -282 3 -5 8 -24 10 -41
3 -26 -10 -29 -1 -17 56 18 84 46 118 68 82 20 -33 102 157 102 238 0 45 -14
63 -70 89 -90 43 -94 51 -67 132 29 84 36 92 54 62 8 -14 46 -30 84 -36 62
-11 65 -9 34 17 -50 41 -43 70 20 80 39 6 31 9 -28 11 -153 5 -177 35 -113
139 56 90 82 104 141 73 35 -18 63 -21 87 -8z m858 -466 c0 44 100 21 112 -26
14 -54 -25 -136 -55 -117 -12 7 -30 1 -41 -14 -15 -22 -17 -20 -9 7 7 22 1 35
-15 35 -26 0 -51 58 -52 117 0 23 6 23 30 3 17 -14 30 -16 30 -5z m329 -186
c51 -52 39 -171 -30 -274 -106 -161 -294 -233 -285 -110 4 69 -29 72 -46 5
-15 -63 21 -110 84 -110 63 0 60 -25 -16 -143 -78 -121 -104 -96 -105 103 -2
317 97 561 216 533 24 -5 61 -2 83 7 57 24 64 24 99 -11z m-1452 -336 c18 -21
13 -35 -17 -63 -39 -35 -40 -35 -40 27 0 67 21 80 57 36z m903 -162 c0 -49 -9
-94 -20 -101 -11 -7 -20 7 -20 30 0 24 -13 56 -30 73 -40 40 -38 69 3 53 23
-9 29 -5 19 11 -9 14 -2 23 17 23 23 0 31 -22 31 -89z m-760 9 c0 -27 -13 -40
-40 -40 -39 0 -54 39 -27 67 28 27 67 12 67 -27z m664 -95 c20 -36 36 -78 36
-95 0 -59 -33 -28 -74 69 -47 111 -19 129 38 26z m-483 -10 c82 -26 123 -102
124 -227 0 -33 10 -41 43 -35 39 8 39 7 -3 -12 -29 -12 -45 -37 -45 -68 0 -26
-14 -59 -30 -73 -26 -22 -29 -20 -18 7 9 25 1 33 -34 33 -44 0 -44 1 -7 28 21
16 45 24 54 19 8 -5 15 0 15 12 0 27 -34 27 -51 0 -7 -12 -26 -17 -42 -10 -17
6 -47 2 -68 -10 -32 -17 -39 -14 -39 19 0 21 -11 43 -25 48 -16 5 -2 30 39 70
88 86 48 119 -149 122 -87 2 -109 30 -61 78 31 31 195 31 297 -1z m-233 -187
c35 -13 43 -79 13 -97 -19 -12 -61 48 -61 88 0 24 5 25 48 9z m301 -661 c21
-84 -47 -144 -98 -88 -21 23 -28 41 -17 41 11 0 16 23 11 50 -15 76 85 73 104
-3z m-1231 -189 c55 -54 71 -101 67 -194 0 -15 11 -22 27 -16 21 8 28 -10 28
-79 0 -104 -44 -123 -76 -32 -11 32 -46 96 -77 143 -31 47 -72 108 -90 135
-73 109 22 143 121 43z m-118 -81 c117 -181 223 -402 212 -444 -5 -21 4 -66
21 -99 22 -43 25 -63 8 -73 -17 -11 -14 -38 10 -103 98 -262 140 -546 90 -607
-13 -16 -18 -40 -10 -53 9 -14 7 -19 -6 -11 -11 7 -21 46 -22 88 -4 262 -68
525 -126 525 -20 0 -37 -13 -37 -30 0 -16 9 -30 19 -30 11 0 14 -14 7 -32 -15
-41 -49 36 -84 197 -13 63 -34 120 -46 128 -23 14 -17 -20 38 -212 20 -68 53
-128 89 -160 55 -48 78 -121 37 -121 -30 0 -24 -88 20 -300 51 -247 53 -431 5
-449 -57 -22 -137 102 -154 239 -2 11 -15 42 -30 69 -14 27 -29 72 -31 100 -8
78 -18 110 -40 126 -12 8 -8 15 10 15 23 1 21 8 -9 31 -23 17 -40 55 -41 89
-1 33 -10 58 -21 55 -45 -12 70 -457 168 -650 79 -153 162 -384 151 -414 -12
-30 -68 -50 -238 -87 l-80 -17 124 -38 c73 -22 118 -45 110 -58 -7 -11 -10
-84 -7 -161 l6 -140 -47 44 c-92 87 -467 150 -626 106 -101 -28 -127 -20 -82
25 21 21 23 36 8 51 -14 14 -9 28 19 45 24 16 36 39 30 62 -5 21 1 37 14 37
15 0 19 15 11 40 -15 46 47 51 250 21 62 -9 118 -9 129 1 10 10 36 18 56 18
21 0 78 23 127 50 49 27 108 50 131 50 35 0 38 5 17 30 -53 63 -179 38 -263
-53 -80 -87 -116 -76 -90 29 8 32 0 53 -29 70 -54 35 -74 17 -72 -65 3 -96
-10 -101 -98 -41 -97 66 -107 83 -108 175 0 79 19 94 60 45 13 -16 33 -25 42
-19 10 6 18 0 18 -13 0 -14 5 -20 10 -15 21 21 -35 139 -61 129 -16 -6 -25 4
-24 28 2 20 9 33 17 29 7 -5 18 16 24 46 11 56 -18 92 -55 70 -12 -6 -5 7 15
29 34 40 34 41 -5 52 -23 5 -41 26 -41 45 0 33 2 33 40 -1 36 -33 40 -33 40
-3 0 18 -10 33 -21 33 -13 0 -16 17 -8 43 9 28 6 38 -9 28 -32 -20 -27 1 9 38
18 17 23 31 13 31 -10 0 -16 34 -13 75 22 285 35 385 51 385 10 0 18 20 18 45
0 42 4 40 65 -21 41 -41 57 -71 44 -80 -12 -8 -22 -37 -21 -64 0 -28 -6 -61
-14 -73 -8 -13 3 -27 24 -32 28 -8 44 -41 61 -128 13 -64 35 -153 50 -197 15
-44 33 -105 39 -135 12 -52 52 -79 52 -35 0 11 -8 20 -18 20 -10 0 -14 17 -8
38 5 20 -9 104 -31 185 -22 81 -55 251 -73 377 -18 127 -45 290 -61 364 -15
74 -22 150 -15 169 10 25 6 29 -16 16 -24 -14 -24 -12 -1 16 14 18 21 42 14
53 -6 10 -3 24 7 31 10 6 11 42 1 85 -10 43 -9 88 3 110 11 20 12 36 4 36 -9
0 -7 7 4 15 11 8 34 41 50 73 17 32 46 62 65 67 19 6 35 18 35 27 0 43 38 10
100 -85z m2959 -360 c-22 -15 -23 -23 -4 -30 39 -16 29 -45 -15 -42 -28 3 -40
18 -40 50 0 26 8 42 19 36 10 -6 24 -2 32 10 7 12 19 16 25 9 7 -7 0 -21 -17
-33z m23 -340 c-12 -59 -31 -188 -43 -287 -17 -144 -97 -651 -154 -975 -10
-56 -33 -71 -55 -36 -14 24 28 358 51 403 17 31 59 302 68 438 3 39 15 95 28
126 13 31 23 78 23 104 0 26 9 53 21 61 12 7 17 23 13 36 -5 13 0 40 11 61 13
24 12 41 -2 50 -14 9 -10 35 11 78 43 89 54 68 28 -59z m35 -829 c7 4 13 -68
13 -161 l-1 -170 -82 -93 c-102 -115 -80 -136 83 -82 118 39 149 32 150 -35 0
-33 -125 -87 -201 -87 -36 0 -81 -14 -100 -31 -31 -28 -40 -28 -98 7 -67 41
-52 62 46 66 23 0 32 6 18 11 -37 15 -31 59 32 247 32 94 70 219 85 279 15 60
31 94 34 75 4 -19 13 -31 21 -26z m189 -701 c29 -28 -31 -86 -101 -98 -93 -16
-209 -52 -234 -73 -27 -23 -56 -20 -41 4 7 11 -1 20 -18 20 -51 0 -55 37 -8
63 89 48 378 109 402 84z m-46 -146 c-27 -8 -86 -20 -130 -27 l-80 -12 80 28
c44 15 103 27 130 27 l50 0 -50 -16z m-3186 -205 c91 -34 166 -70 166 -79 0
-9 -13 -11 -30 -4 -16 6 -30 1 -30 -11 0 -24 -73 -31 -83 -7 -27 61 -215 114
-400 115 -288 0 -278 25 23 57 106 12 171 -1 354 -71z"/>
<path d="M3070 5099 c69 -9 128 -8 139 3 12 11 -36 17 -120 15 l-139 -2 120
-16z"/>
<path d="M2915 4804 c-12 -15 -14 -32 -3 -42 174 -154 213 -186 190 -157 -32
42 3 48 37 6 45 -54 140 -59 204 -12 41 30 82 42 133 38 80 -6 93 30 28 77
-19 14 -44 33 -55 43 -66 55 -132 70 -315 72 -140 1 -203 -6 -219 -25z m396
-114 c34 -25 35 -32 9 -49 -61 -41 -111 -14 -88 47 15 40 30 40 79 2z"/>
<path d="M3485 4405 c-45 -8 -64 -45 -24 -45 12 0 8 -14 -10 -31 -43 -44 -39
-54 9 -24 22 13 40 36 40 49 0 14 13 20 30 13 17 -6 30 -2 30 10 0 28 -22 36
-75 28z"/>
<path d="M3266 4323 c-35 -10 -40 -20 -24 -43 14 -20 24 -23 30 -7 14 31 88 9
88 -27 0 -15 8 -23 19 -17 21 13 20 91 -2 91 -7 0 -26 4 -40 8 -15 4 -47 2
-71 -5z"/>
<path d="M4110 4576 c-22 -13 -52 -36 -67 -50 -15 -15 -44 -22 -66 -15 -36 11
-38 6 -26 -60 11 -58 6 -79 -24 -104 -35 -29 -35 -30 0 -19 20 7 45 12 55 12
10 0 18 17 18 38 0 40 50 70 83 50 11 -7 17 13 13 45 -5 49 1 57 44 57 31 0
52 13 56 35 8 40 -28 44 -86 11z"/>
<path d="M1708 2965 c-12 -8 -27 -51 -34 -95 l-12 -80 26 80 26 80 14 -76 c8
-42 27 -81 43 -87 16 -6 29 -34 29 -62 0 -27 27 -103 60 -168 66 -129 77 -176
30 -130 -16 17 -30 44 -30 60 0 17 -9 36 -20 43 -12 7 -20 -17 -20 -60 0 -40
8 -67 18 -61 27 17 102 -97 102 -155 0 -27 14 -60 30 -74 37 -31 39 -51 -20
228 -66 310 -189 593 -242 557z"/>
<path d="M1620 2764 c0 -9 15 -60 33 -113 25 -73 27 -99 8 -110 -17 -11 -14
-19 12 -30 36 -13 36 -15 1 -40 -35 -26 -34 -29 9 -59 24 -17 39 -37 32 -44
-7 -7 -28 2 -45 20 -40 39 -64 43 -33 5 13 -15 17 -33 9 -40 -7 -8 4 -26 25
-41 43 -31 121 -166 105 -183 -6 -5 -34 -1 -63 10 -63 24 -89 -5 -45 -50 17
-17 39 -45 49 -63 52 -92 102 130 65 289 -23 98 -82 396 -82 413 0 6 -18 20
-40 32 -22 12 -40 14 -40 4z"/>
<path d="M1819 2015 c-4 -11 -9 -215 -6 -215 2 0 18 -6 36 -12 26 -10 29 -4
15 35 -9 26 -14 81 -10 122 5 56 -23 111 -35 70z"/>
<path d="M1525 556 c-89 -24 -82 -56 13 -56 42 0 103 -3 135 -7 31 -4 46 -4
32 1 -14 5 -25 18 -25 29 0 10 -9 14 -20 7 -11 -7 -20 -4 -20 7 0 30 -45 38
-115 19z"/>
<path d="M3750 3440 c-40 -44 -30 -72 19 -53 17 6 31 30 31 52 0 51 -5 51 -50
1z"/>
<path d="M3728 3316 c-21 -27 -50 -53 -65 -58 -29 -10 -51 -238 -23 -238 9 0
27 32 40 70 13 39 30 70 39 70 9 0 21 19 27 42 6 23 21 36 33 29 24 -15 26 39
3 97 -14 35 -17 35 -54 -12z"/>
<path d="M3465 3280 c24 -39 61 -47 55 -12 -2 10 9 25 23 34 18 12 5 17 -38
18 -60 0 -63 -3 -40 -40z"/>
<path d="M2733 3075 c30 -102 94 -195 134 -195 10 0 5 16 -12 35 -34 39 -115
211 -115 244 0 12 -9 21 -19 21 -10 0 -5 -47 12 -105z"/>
<path d="M2242 3112 c-18 -44 -18 -62 -1 -73 16 -9 17 -17 2 -22 -11 -4 -23
-38 -25 -77 -7 -139 6 -148 41 -27 25 83 32 145 22 190 l-15 67 -24 -58z"/>
<path d="M4209 3085 c8 -19 19 -60 25 -90 6 -30 24 -65 40 -78 34 -29 19 56
-27 148 -31 61 -59 76 -38 20z"/>
<path d="M4077 3025 c-151 -163 -315 -453 -359 -633 -16 -65 -36 -101 -61
-107 -20 -5 -31 -19 -23 -31 7 -12 -15 -1 -50 23 -35 25 -64 57 -64 70 0 13
-36 69 -81 123 -45 55 -107 132 -138 170 -166 204 -382 426 -398 409 -7 -8 -2
-18 11 -23 13 -5 19 -21 13 -36 -5 -15 8 -37 30 -48 22 -12 59 -54 84 -94 25
-39 64 -92 87 -117 74 -80 184 -217 303 -376 63 -85 131 -159 151 -166 29 -9
33 -21 18 -58 -9 -26 -12 -52 -5 -59 7 -7 -15 -42 -48 -77 -80 -86 -146 -182
-208 -304 -29 -56 -97 -187 -153 -293 -104 -195 -146 -308 -131 -353 9 -27 47
-35 43 -10 -6 37 4 65 23 65 12 0 15 -11 6 -24 -8 -13 -17 -46 -20 -73 -3 -27
-15 -56 -28 -64 -17 -10 -17 -18 -1 -28 15 -9 13 -34 -8 -85 -29 -68 -24 -119
6 -74 8 12 30 27 49 34 19 7 35 32 35 55 0 23 9 58 19 77 11 20 24 57 29 84
25 117 78 237 99 226 13 -6 8 2 -11 17 -31 26 -32 32 -4 72 16 23 47 95 68
158 55 165 177 385 214 385 25 0 26 -5 6 -30 -21 -25 -20 -37 6 -65 23 -25 26
-45 12 -70 -11 -20 -15 -44 -8 -55 7 -11 5 -20 -4 -20 -29 0 -66 -77 -53 -110
7 -18 24 -28 39 -22 16 6 22 -1 15 -19 -6 -16 -20 -29 -31 -29 -12 0 -7 -21
11 -48 30 -46 29 -48 -43 -77 l-74 -29 75 -15 c81 -17 99 -69 53 -154 -17 -32
-14 -46 14 -66 44 -32 25 -86 -35 -94 -25 -4 -56 -28 -69 -54 -13 -25 -33 -56
-46 -69 -66 -66 -5 -70 66 -4 105 97 131 73 121 -115 -10 -209 -11 -214 -65
-289 -44 -63 -58 -126 -27 -126 9 0 28 23 43 50 65 122 102 -68 37 -194 -27
-52 -20 -82 15 -68 26 10 30 3 20 -38 -7 -29 -4 -50 8 -50 11 0 20 32 20 72
l0 72 79 -14 c45 -7 94 -4 115 8 33 19 32 21 -9 21 -25 1 -45 6 -45 13 0 6 20
28 45 49 66 55 34 47 -45 -11 -76 -56 -140 -65 -140 -20 0 19 19 30 51 30 32
0 46 8 38 22 -7 12 -30 17 -51 12 -21 -6 -38 -2 -38 8 0 10 13 18 29 18 16 0
34 8 40 18 6 10 -9 13 -34 7 -40 -11 -42 -8 -18 22 18 21 20 33 5 33 -12 0
-22 14 -22 30 0 20 20 30 60 30 47 0 60 -9 60 -42 0 -28 20 -49 60 -64 33 -13
60 -33 60 -46 0 -13 15 -22 33 -21 18 2 36 -8 41 -20 5 -15 -7 -20 -33 -13
-36 9 -41 2 -40 -67 0 -62 4 -70 21 -42 27 47 44 44 71 -15 19 -42 18 -53 -10
-69 -18 -11 -24 -20 -12 -20 12 -1 31 9 43 21 15 15 25 15 35 0 15 -25 131
-30 131 -6 0 9 -19 36 -41 61 -23 24 -45 64 -50 88 -13 72 -54 141 -114 193
-51 45 -53 51 -24 83 27 30 28 43 7 82 -14 26 -23 72 -20 102 6 63 -2 66 -64
28 -38 -24 -77 -27 -189 -16 -14 2 -25 17 -25 34 0 19 9 26 24 16 78 -48 238
-13 234 51 -1 21 -5 23 -11 7 -7 -16 -49 -24 -124 -22 -107 4 -109 4 -23 12
87 7 160 49 160 91 0 11 -17 5 -38 -14 -30 -28 -47 -31 -79 -14 -52 28 -127
31 -84 3 26 -16 25 -21 -5 -32 -54 -21 -61 -1 -66 180 -3 93 -10 186 -17 208
-17 54 15 69 143 68 84 -1 112 7 121 32 7 18 22 40 34 48 14 10 14 14 -2 15
-13 0 -19 16 -14 36 5 20 -4 49 -22 63 -17 14 -31 39 -31 55 0 15 -9 23 -19
17 -11 -7 -14 -25 -9 -40 8 -20 0 -25 -30 -17 -49 13 -55 42 -12 59 49 19 34
42 -35 52 -42 7 -77 0 -100 -20 -33 -30 -35 -17 -35 232 0 172 7 263 21 263
12 0 15 10 8 22 -10 16 -3 16 27 0 23 -12 55 -22 73 -22 54 0 34 31 -39 60
-57 22 -70 38 -70 84 0 66 26 72 67 14 23 -32 37 -37 66 -22 51 28 133 125
117 140 -7 7 -19 2 -27 -11 -15 -24 -62 -34 -125 -28 -47 5 -25 116 26 130 22
6 35 19 28 30 -6 10 2 24 19 31 17 6 29 23 26 37 -5 24 55 154 81 175 19 16
90 168 86 185 -2 8 10 15 27 15 17 0 26 -8 20 -19 -6 -10 -3 -24 9 -31 11 -7
20 -2 20 10 0 12 8 18 17 12 10 -6 23 22 30 63 17 105 16 185 -3 185 -9 0 -39
-25 -67 -55z m-261 -1677 c4 -26 -7 -48 -27 -56 -39 -14 -89 19 -89 60 0 16
-13 22 -35 15 -30 -9 -30 -7 -5 11 51 38 149 18 156 -30z m30 -808 c5 -19 2
-46 -6 -60 -23 -38 -89 -14 -96 35 -4 25 -20 45 -35 45 -16 0 -29 7 -29 16 0
34 156 0 166 -36z"/>
<path d="M3220 2975 c0 -45 193 -375 231 -396 26 -14 43 -33 37 -42 -15 -25
15 -19 72 13 l50 29 -47 0 c-44 1 -121 69 -122 109 -2 46 -221 331 -221 287z"/>
<path d="M2639 2539 c-21 -12 -21 -22 -3 -44 13 -16 17 -36 9 -45 -8 -9 1 -11
19 -4 20 7 42 1 50 -15 19 -32 166 -76 166 -49 0 10 -11 18 -25 18 -20 1 -20
4 0 16 16 11 -11 36 -83 78 -66 38 -117 55 -133 45z"/>
<path d="M2260 2418 c0 -38 4 -40 33 -15 18 15 36 25 40 22 4 -3 18 -4 32 -4
29 2 -43 36 -80 38 -14 0 -25 -18 -25 -41z"/>
<path d="M3790 2120 c-7 -11 -5 -20 4 -20 9 0 39 -6 66 -14 45 -12 47 -10 23
21 -31 37 -74 43 -93 13z"/>
<path d="M2700 2080 c0 -12 -36 -18 -83 -15 -72 4 -83 -1 -90 -41 -4 -26 1
-41 12 -35 10 6 23 5 28 -4 5 -9 51 -14 102 -13 50 2 97 -5 103 -15 6 -10 21
-11 34 -3 13 9 31 17 39 18 8 2 22 4 30 6 23 4 -41 41 -72 42 -18 0 -23 -12
-14 -35 11 -28 8 -30 -12 -10 -19 19 -20 30 -1 49 28 28 32 64 5 47 -10 -6
-24 -3 -31 9 -16 26 -50 26 -50 0z"/>
<path d="M3780 2000 c-25 -17 -26 -23 -2 -38 15 -10 21 -28 13 -40 -7 -12 -5
-22 6 -22 11 0 26 -28 34 -63 7 -35 31 -82 53 -105 191 -201 383 -540 405
-716 19 -143 30 -179 53 -165 12 8 13 21 1 36 -10 13 -11 41 -3 63 8 22 5 60
-6 84 -14 32 -13 53 4 74 20 23 14 61 -25 186 -75 234 -104 294 -187 380 -105
110 -140 155 -155 204 -8 23 -40 56 -72 73 -33 16 -59 39 -59 50 0 24 -22 24
-60 -1z"/>
<path d="M4244 1932 c-25 -56 46 -272 90 -272 42 0 101 -169 66 -190 -19 -12
-16 -49 9 -88 12 -19 10 -24 -6 -14 -13 8 -23 5 -23 -6 0 -11 9 -25 20 -32 11
-7 20 -23 20 -36 0 -15 -9 -13 -22 6 -19 26 -20 25 -11 -4 6 -18 17 -68 26
-110 12 -64 19 -39 41 164 43 401 44 410 23 410 -10 0 -14 8 -8 18 6 9 -3 29
-19 42 -17 14 -30 34 -30 45 0 82 -144 136 -176 67z"/>
<path d="M2342 1676 c-18 -29 -19 -47 -4 -62 16 -16 22 -14 22 5 0 15 15 37
33 51 28 20 28 25 3 35 -16 6 -40 -6 -54 -29z"/>
<path d="M2570 1659 c-9 -28 -5 -50 13 -61 40 -26 77 -22 66 7 -6 16 12 26 51
27 33 1 60 -5 60 -15 0 -9 -18 -17 -40 -17 -22 0 -40 -9 -40 -19 0 -25 71 -63
87 -47 7 7 13 4 13 -7 0 -33 -97 -107 -140 -107 -22 0 -40 -13 -40 -30 0 -16
11 -30 24 -30 13 0 7 -12 -13 -27 -25 -18 -33 -42 -26 -71 8 -29 2 -48 -17
-55 -41 -16 -34 -38 12 -42 22 -1 40 9 40 23 0 14 23 36 50 48 34 16 50 16 50
2 0 -35 118 70 119 106 1 40 75 96 125 96 79 0 4 123 -93 152 -22 7 -54 24
-71 38 -16 14 -57 29 -90 35 -33 5 -75 16 -93 24 -24 10 -37 1 -47 -30z"/>
<path d="M3786 1158 c-35 -10 -70 -28 -78 -40 -8 -15 1 -18 29 -9 55 18 128
-5 110 -34 -9 -14 -2 -17 20 -9 24 9 33 2 33 -29 0 -39 -9 -41 -104 -32 -91 9
-99 7 -66 -18 51 -36 164 -35 185 3 14 26 27 23 85 -20 83 -61 83 -61 60 0
-10 28 -14 50 -8 50 6 0 -23 32 -64 71 -51 48 -81 64 -95 50 -33 -33 -61 -25
-33 9 28 34 18 35 -74 8z"/>
<path d="M2640 1145 c0 -12 -19 -19 -43 -14 -23 4 -37 2 -30 -5 7 -7 -7 -22
-30 -34 -24 -12 -55 -53 -69 -92 -14 -38 -26 -63 -26 -53 -1 9 -27 -14 -57
-50 -30 -37 -61 -70 -69 -73 -8 -4 -9 -20 -3 -35 6 -16 1 -29 -12 -29 -13 0
-37 -13 -52 -29 -78 -78 19 -131 104 -58 36 32 90 55 137 59 63 5 214 108 159
108 -6 0 9 29 34 64 25 35 32 56 16 47 -24 -14 -24 -12 -4 10 33 35 32 59 -3
59 -38 0 -59 63 -28 83 20 12 21 20 1 40 -18 18 -25 18 -25 2z"/>
<path d="M3072 703 c-18 -21 -31 -46 -29 -55 10 -34 -50 -288 -68 -288 -9 0
-12 -9 -5 -20 7 -11 16 -39 21 -63 15 -81 44 -82 58 -3 8 42 27 96 43 121 16
25 20 45 8 45 -34 0 -22 55 14 69 28 10 29 17 8 30 -23 14 -22 27 4 79 18 37
22 62 10 62 -13 0 -11 12 4 30 39 46 -25 39 -68 -7z"/>
<path d="M3354 665 c-19 -21 -29 -44 -22 -51 7 -6 -10 -18 -39 -25 -49 -12
-50 -15 -21 -59 41 -63 107 -77 157 -33 23 19 66 48 97 63 63 32 31 80 -53 80
-21 0 -49 14 -61 31 -21 28 -27 28 -58 -6z"/>
<path d="M4166 508 c-30 -64 -2 -153 42 -136 20 8 28 37 26 93 -5 96 -34 115
-68 43z"/>
<path d="M4340 373 c0 -66 66 -124 98 -86 34 41 -6 133 -58 133 -29 0 -40 -13
-40 -47z"/>
<path d="M3025 80 c-25 -20 -45 -42 -45 -48 0 -26 82 -10 93 17 20 54 -2 68
-48 31z"/>
<path d="M3821 41 c-46 -29 -10 -47 40 -21 35 19 48 19 60 -2 9 -15 24 -20 32
-11 38 37 -79 67 -132 34z"/>
</g>
</svg>
